<?xml version="1.0" encoding="iso-8859-1"?>
<!-- Generator: Adobe Illustrator 19.0.0, SVG Export Plug-In . SVG Version: 6.00 Build 0)  -->
<svg version="1.1" id="Layer_1" xmlns="http://www.w3.org/2000/svg" xmlns:xlink="http://www.w3.org/1999/xlink" x="0px" y="0px"
	 viewBox="0 0 512 512" style="enable-background:new 0 0 512 512;" xml:space="preserve">
<rect x="345.732" y="205.856" style="fill:#F25B22;" width="105.567" height="42.227"/>
<polygon style="fill:#36C63F;" points="166.268,205.856 166.268,248.082 134.598,248.082 134.598,279.753 92.371,279.753 
	92.371,248.082 60.701,248.082 60.701,205.856 92.371,205.856 92.371,174.186 134.598,174.186 134.598,205.856 "/>
<path style="fill:#7E8488;" d="M504.082,126.68v306.144h-21.113H23.753H7.918V126.68h31.67h116.124h200.577h116.124H504.082z
	 M451.299,248.082v-42.227H345.732v42.227H451.299z M166.268,248.082v-42.227h-31.67v-31.67H92.371v31.67h-31.67v42.227h31.67v31.67
	h42.227v-31.67H166.268z"/>
<g>
	<rect x="23.753" y="432.825" style="fill:#595E62;" width="459.217" height="47.505"/>
	<polygon style="fill:#595E62;" points="472.412,89.732 472.412,126.68 356.289,126.68 356.289,89.732 382.68,89.732 
		446.021,89.732 	"/>
</g>
<rect x="382.68" y="31.67" style="fill:#AFB6BB;" width="63.34" height="58.062"/>
<polygon style="fill:#595E62;" points="155.711,89.732 155.711,126.68 39.588,126.68 39.588,89.732 65.979,89.732 129.32,89.732 "/>
<rect x="65.979" y="31.67" style="fill:#AFB6BB;" width="63.34" height="58.062"/>
<path style="fill:#6D7276;" d="M165.068,248.082h-30.47v31.67H92.371v-31.67h-31.67v-42.227h31.67v-31.67h16.354
	c-9.246-15.291-17.451-31.167-24.673-47.505H39.588H7.918v306.144h15.835h459.216h21.113v-32.351
	C368.458,393.812,247.943,336.094,165.068,248.082z"/>
<g>
	<rect x="44.866" y="382.68" style="fill:#FFFFFF;" width="422.268" height="15.835"/>
	<rect x="44.866" y="345.732" style="fill:#FFFFFF;" width="26.392" height="15.835"/>
	<rect x="440.742" y="345.732" style="fill:#FFFFFF;" width="26.392" height="15.835"/>
</g>
<path d="M512,118.763h-31.67V81.814h-26.392V23.753h-79.175v58.062h-26.392v36.948H163.629V81.814h-26.392V23.753H58.062v58.062
	H31.67v36.948H0v321.979h15.835v47.505h475.052v-47.505H512V118.763z M390.598,39.588h47.505v42.227h-47.505V39.588z
	 M364.206,97.649h100.289v21.113H364.206V97.649z M73.897,39.588h47.505v42.227H73.897V39.588z M47.505,97.649h100.289v21.113
	H47.505V97.649z M475.052,472.412H31.67v-31.67h443.381V472.412z M496.165,424.907H15.835V134.598h480.33V424.907z"/>
<path d="M142.515,166.268H84.454v31.67h-31.67V256h31.67v31.67h58.062V256h31.67v-58.062h-31.67V166.268z M158.351,213.773v26.392
	h-31.67v31.67h-26.392v-31.67h-31.67v-26.392h31.67v-31.67h26.392v31.67H158.351z"/>
<path d="M337.814,256h121.402v-58.062H337.814V256z M353.65,213.773h89.732v26.392H353.65V213.773z"/>
<polygon style="fill:#FFFFFF;" points="258.111,314.265 243.332,308.581 265.586,250.722 216.271,250.722 254.328,180.95 
	268.229,188.534 242.946,234.887 288.641,234.887 "/>
<g>
</g>
<g>
</g>
<g>
</g>
<g>
</g>
<g>
</g>
<g>
</g>
<g>
</g>
<g>
</g>
<g>
</g>
<g>
</g>
<g>
</g>
<g>
</g>
<g>
</g>
<g>
</g>
<g>
</g>
</svg>
